<svg xmlns="http://www.w3.org/2000/svg" xmlns:xlink="http://www.w3.org/1999/xlink" width="500" zoomAndPan="magnify" viewBox="0 0 375 374.999991" height="500" preserveAspectRatio="xMidYMid meet" version="1.0"><defs><clipPath id="0fb2f8dedd"><path d="M 0 165 L 375 165 L 375 294.890625 L 0 294.890625 Z M 0 165 " clip-rule="nonzero"/></clipPath><clipPath id="06836ff7d0"><path d="M 93 80.390625 L 248 80.390625 L 248 236 L 93 236 Z M 93 80.390625 " clip-rule="nonzero"/></clipPath></defs><g clip-path="url(#0fb2f8dedd)"><path fill="#e2a847" d="M 245.367188 165.417969 L 267.300781 195.554688 C 114.152344 211.179688 0.113281 294.609375 0.113281 294.609375 C 21.546875 283.167969 57.710938 265.875 105.148438 250.597656 C 133.660156 241.414062 168.515625 232.339844 208.066406 226.277344 C 257.4375 218.695312 314.125 215.789062 374.886719 223.1875 L 245.367188 165.417969 " fill-opacity="1" fill-rule="nonzero"/></g><path fill="#1e2432" d="M 74.628906 268.269531 L 61.207031 291.515625 L 103.042969 291.515625 L 126.4375 251 C 119.984375 252.863281 113.558594 254.820312 107.171875 256.875 C 95.636719 260.589844 84.777344 264.429688 74.628906 268.269531 " fill-opacity="1" fill-rule="nonzero"/><g clip-path="url(#06836ff7d0)"><path fill="#1e2432" d="M 183.101562 80.390625 L 93.320312 235.890625 C 109.136719 228.980469 127.203125 221.84375 147.097656 215.214844 L 183.101562 152.851562 L 209.253906 198.152344 C 221.519531 195.507812 234.179688 193.207031 247.175781 191.367188 L 183.101562 80.390625 " fill-opacity="1" fill-rule="nonzero"/></g><path fill="#1e2432" d="M 267.503906 226.582031 C 254.296875 227.363281 241.035156 228.597656 227.777344 230.234375 L 263.160156 291.515625 L 304.996094 291.515625 L 267.503906 226.582031 " fill-opacity="1" fill-rule="nonzero"/></svg>