<svg xmlns="http://www.w3.org/2000/svg" xmlns:xlink="http://www.w3.org/1999/xlink" width="500" zoomAndPan="magnify" viewBox="0 80 375 145" height="290" preserveAspectRatio="xMidYMid meet" version="1.0"><defs><g/><clipPath id="d925bc176d"><path d="M 11.066406 154 L 181 154 L 181 212.984375 L 11.066406 212.984375 Z M 11.066406 154 " clip-rule="nonzero"/></clipPath><clipPath id="202111953f"><path d="M 53 116.234375 L 124 116.234375 L 124 187 L 53 187 Z M 53 116.234375 " clip-rule="nonzero"/></clipPath></defs><g fill="#1e2432" fill-opacity="1"><g transform="translate(153.286548, 211.701432)"><g><path d="M 44.90625 0 L 34.3125 0 L 26.09375 -19.484375 L 15.84375 -19.484375 L 15.84375 0 L 5.671875 0 L 5.671875 -50.578125 L 27 -50.578125 C 31.03125 -50.578125 34.328125 -49.9375 36.890625 -48.65625 C 39.460938 -47.375 41.351562 -45.59375 42.5625 -43.3125 C 43.78125 -41.039062 44.390625 -38.425781 44.390625 -35.46875 C 44.390625 -32.8125 43.972656 -30.566406 43.140625 -28.734375 C 42.316406 -26.898438 41.234375 -25.375 39.890625 -24.15625 C 38.546875 -22.945312 37.082031 -21.960938 35.5 -21.203125 Z M 25.1875 -27.359375 C 27.914062 -27.359375 30.078125 -28.09375 31.671875 -29.5625 C 33.265625 -31.03125 34.0625 -32.914062 34.0625 -35.21875 C 34.0625 -37.550781 33.289062 -39.394531 31.75 -40.75 C 30.21875 -42.101562 28.273438 -42.78125 25.921875 -42.78125 L 15.84375 -42.78125 L 15.84375 -27.359375 Z M 25.1875 -27.359375 "/></g></g></g><g fill="#1e2432" fill-opacity="1"><g transform="translate(201.971153, 211.701432)"><g><path d="M 5.671875 -50.578125 L 15.84375 -50.578125 L 15.84375 0 L 5.671875 0 Z M 5.671875 -50.578125 "/></g></g></g><g fill="#1e2432" fill-opacity="1"><g transform="translate(223.480517, 211.701432)"><g><path d="M 3.78125 0 L 3.78125 -4.96875 L 29.453125 -42.046875 L 5.484375 -42.046875 L 5.484375 -50.578125 L 44 -50.578125 L 44 -45.8125 L 17.984375 -8.640625 L 43.71875 -8.640625 L 43.71875 0 Z M 3.78125 0 "/></g></g></g><g fill="#1e2432" fill-opacity="1"><g transform="translate(270.311465, 211.701432)"><g><path d="M 5.671875 0 L 5.671875 -50.578125 L 40.390625 -50.578125 L 40.359375 -41.96875 L 15.921875 -41.96875 L 15.921875 -29.6875 L 37.140625 -29.6875 L 37.140625 -21.265625 L 15.84375 -21.265625 L 15.84375 -8.703125 L 40.75 -8.671875 L 40.75 0 Z M 5.671875 0 "/></g></g></g><g clip-path="url(#d925bc176d)"><path fill="#e2a847" d="M 122.21875 154.753906 L 132.15625 168.40625 C 62.777344 175.484375 11.117188 213.277344 11.117188 213.277344 C 20.824219 208.09375 37.207031 200.261719 58.699219 193.339844 C 71.613281 189.179688 87.402344 185.070312 105.320312 182.324219 C 127.683594 178.886719 153.363281 177.574219 180.890625 180.925781 L 122.21875 154.753906 " fill-opacity="1" fill-rule="nonzero"/></g><path fill="#1e2432" d="M 44.871094 201.347656 L 38.792969 211.878906 L 57.746094 211.878906 L 68.34375 193.523438 C 65.417969 194.367188 62.507812 195.253906 59.613281 196.183594 C 54.390625 197.867188 49.46875 199.605469 44.871094 201.347656 " fill-opacity="1" fill-rule="nonzero"/><g clip-path="url(#202111953f)"><path fill="#1e2432" d="M 94.011719 116.234375 L 53.339844 186.679688 C 60.503906 183.546875 68.6875 180.316406 77.699219 177.3125 L 94.011719 149.0625 L 105.859375 169.582031 C 111.414062 168.382812 117.152344 167.34375 123.035156 166.507812 L 94.011719 116.234375 " fill-opacity="1" fill-rule="nonzero"/></g><path fill="#1e2432" d="M 132.246094 182.460938 C 126.261719 182.816406 120.253906 183.375 114.25 184.117188 L 130.277344 211.878906 L 149.230469 211.878906 L 132.246094 182.460938 " fill-opacity="1" fill-rule="nonzero"/></svg>